<?xml version="1.0" encoding="utf-8"?><!-- Generator: Adobe Illustrator 15.0.0, SVG Export Plug-In . SVG Version: 6.00 Build 0)  --><!DOCTYPE svg PUBLIC "-//W3C//DTD SVG 1.1//EN" "http://www.w3.org/Graphics/SVG/1.1/DTD/svg11.dtd"><svg xmlns="http://www.w3.org/2000/svg" xmlns:xlink="http://www.w3.org/1999/xlink" version="1.1" id="Слой_1" x="0px" y="0px" width="48px" height="48px" viewBox="0 0 48 48" enable-background="new 0 0 48 48" xml:space="preserve">
<path fill="#FF3D00" d="M31,17c0.479-0.479,2.109-0.037,3.676,0.551C37.574,19.223,40,21,40,21S35,7,25,7C6,7,6,37,6,37l0.318-0.335  C6.111,37.505,6,38,6,38l29-2C35,27,27.838,20.162,31,17z"/>
<path fill="#DD2C00" d="M31,17c0.48-0.48,2.113-0.035,3.683,0.555c-4.209-2.426-9.411-4.619-9.663-0.836  C25.231,25.098,29,27.252,29,36c0.262,1.833,1.213,3.045,2.469,3.841C33.622,39.161,35,37.961,35,36C35,27,27.838,20.162,31,17z"/>
<g>
	<rect x="5" y="33" fill="#CFD8DC" width="31" height="7"/>
	<circle fill="#CFD8DC" cx="8.5" cy="33.5" r="1.5"/>
	<circle fill="#CFD8DC" cx="5.5" cy="33.5" r="1.5"/>
	<circle fill="#CFD8DC" cx="11.5" cy="33.5" r="1.5"/>
	<circle fill="#CFD8DC" cx="14.5" cy="33.5" r="1.5"/>
	<circle fill="#CFD8DC" cx="17.5" cy="33.5" r="1.5"/>
	<circle fill="#CFD8DC" cx="8.5" cy="39.5" r="1.5"/>
	<circle fill="#CFD8DC" cx="11.5" cy="39.5" r="1.5"/>
	<circle fill="#CFD8DC" cx="14.5" cy="39.5" r="1.5"/>
	<circle fill="#CFD8DC" cx="17.5" cy="39.5" r="1.5"/>
	<circle fill="#CFD8DC" cx="20.5" cy="33.5" r="1.5"/>
	<circle fill="#CFD8DC" cx="20.5" cy="39.5" r="1.5"/>
	<circle fill="#CFD8DC" cx="23.5" cy="39.5" r="1.5"/>
	<circle fill="#CFD8DC" cx="35.5" cy="36.5" r="1.5"/>
	<circle fill="#CFD8DC" cx="23.5" cy="33.5" r="1.5"/>
	<circle fill="#CFD8DC" cx="26.5" cy="39.5" r="1.5"/>
	<circle fill="#CFD8DC" cx="26.5" cy="33.5" r="1.5"/>
	<circle fill="#CFD8DC" cx="29.5" cy="39.5" r="1.5"/>
	<circle fill="#CFD8DC" cx="29.5" cy="33.5" r="1.5"/>
	<circle fill="#CFD8DC" cx="32.5" cy="39.5" r="1.5"/>
	<circle fill="#CFD8DC" cx="32.5" cy="33.5" r="1.5"/>
	<circle fill="#CFD8DC" cx="35.5" cy="39.5" r="1.5"/>
	<circle fill="#CFD8DC" cx="35.5" cy="33.5" r="1.5"/>
	<circle fill="#CFD8DC" cx="5.5" cy="36.5" r="1.5"/>
	<circle fill="#CFD8DC" cx="5.5" cy="39.5" r="1.5"/>
	<ellipse fill="#CFD8DC" cx="38.1" cy="20.015" rx="3.589" ry="3.562"/>
	<path fill="#CFD8DC" d="M37.1,24.98L37.1,24.98L37.1,24.98c-0.694-0.14-1.179-0.711-1.219-1.369l0,0   c-0.604,0.26-1.34,0.09-1.773-0.45l0,0l0,0l0,0c-0.413-0.511-0.433-1.21-0.101-1.73l0,0C33.423,21.221,33,20.672,33,20.012l0,0   c0-0.688,0.473-1.27,1.117-1.438l0,0c-0.383-0.551-0.362-1.301,0.092-1.83l0,0c0.442-0.52,1.188-0.669,1.783-0.39l0,0   c0.07-0.66,0.574-1.22,1.259-1.331l0,0c0.686-0.12,1.341,0.25,1.623,0.852l0,0c0.473-0.461,1.219-0.57,1.823-0.211l0,0   c0.594,0.35,0.866,1.051,0.685,1.68l0,0c0.665-0.04,1.311,0.35,1.532,1.009l0,0c0,0,0,0,0-0.01l0,0   c0.231,0.66-0.021,1.36-0.575,1.74l0,0c0.545,0.39,0.776,1.099,0.524,1.739l0,0c-0.252,0.649-0.896,1.029-1.562,0.96l0,0   c0.151,0.64-0.132,1.33-0.745,1.67l0,0c-0.605,0.329-1.351,0.198-1.813-0.271l0,0c-0.252,0.5-0.776,0.82-1.352,0.82l0,0   C37.292,25,37.201,25,37.1,24.98z M37.685,22.031v0.01c0.322,0.06,0.584,0.21,0.796,0.42l0,0c0.131-0.26,0.343-0.49,0.625-0.64l0,0   c0.272-0.15,0.584-0.21,0.876-0.18l0,0c-0.07-0.279-0.06-0.591,0.062-0.89l0,0c0.11-0.3,0.312-0.53,0.554-0.7l0,0   c-0.242-0.17-0.434-0.42-0.534-0.72l0,0c-0.101-0.3-0.111-0.61-0.03-0.89l0,0c-0.293,0.02-0.604-0.04-0.877-0.2l0,0   c-0.271-0.169-0.474-0.399-0.604-0.669l0,0c-0.211,0.21-0.482,0.359-0.796,0.408l0,0c-0.322,0.052-0.625,0-0.896-0.119l0,0   c-0.03,0.29-0.142,0.58-0.342,0.82l0,0c-0.212,0.24-0.475,0.399-0.767,0.479l0,0c0.171,0.239,0.272,0.54,0.272,0.85l0,0   c0,0.299-0.081,0.57-0.232,0.799l0,0c0.263,0.091,0.494,0.25,0.686,0.481l0,0c0.191,0.249,0.303,0.539,0.322,0.84l0,0   c0.182-0.081,0.383-0.13,0.594-0.13l0,0C37.493,22.002,37.594,22.012,37.685,22.031z"/>
</g>
</svg>